<svg width="67" height="67" viewBox="0 0 67 67" fill="none">
<path d="M47.58 41.1537C46.9799 40.6163 46.0579 40.6687 45.5234 41.2673C42.4851 44.6625 38.1039 46.6084 33.4998 46.6084C28.8972 46.6084 24.5145 44.6625 21.4762 41.2673C20.9388 40.6687 20.0197 40.6163 19.4196 41.1537C18.8195 41.6897 18.77 42.6103 19.306 43.2103C22.8963 47.2216 28.0699 49.5214 33.4998 49.5214C38.9312 49.5214 44.1047 47.2201 47.6936 43.2103C48.2296 42.6103 48.1786 41.6897 47.58 41.1537Z" fill="#312F2F"/>
<path d="M33.5 0C15.0284 0 0 15.0284 0 33.5C0 51.9716 15.0284 67 33.5 67C51.9716 67 67 51.9716 67 33.5C67 15.0284 51.9716 0 33.5 0ZM33.5 64.087C16.6335 64.087 2.91304 50.3665 2.91304 33.5C2.91304 16.6335 16.6335 2.91304 33.5 2.91304C50.3665 2.91304 64.087 16.6335 64.087 33.5C64.087 50.3665 50.3665 64.087 33.5 64.087Z" fill="#312F2F"/>
<path d="M45.1522 23.3052C41.1366 23.3052 37.8696 26.5722 37.8696 30.5878C37.8696 31.3918 38.5222 32.0443 39.3262 32.0443C40.1302 32.0443 40.7827 31.3918 40.7827 30.5878C40.7827 28.1787 42.7432 26.2182 45.1522 26.2182C47.5613 26.2182 49.5218 28.1787 49.5218 30.5878C49.5218 31.3918 50.1743 32.0443 50.9783 32.0443C51.7823 32.0443 52.4348 31.3918 52.4348 30.5878C52.4348 26.5722 49.1679 23.3052 45.1522 23.3052Z" fill="#312F2F"/>
<path d="M26.2176 30.5878C26.2176 31.3918 26.8701 32.0443 27.6741 32.0443C28.4781 32.0443 29.1306 31.3918 29.1306 30.5878C29.1306 26.5722 25.8637 23.3052 21.848 23.3052C17.8324 23.3052 14.5654 26.5722 14.5654 30.5878C14.5654 31.3918 15.218 32.0443 16.022 32.0443C16.826 32.0443 17.4785 31.3918 17.4785 30.5878C17.4785 28.1787 19.439 26.2182 21.848 26.2182C24.2571 26.2182 26.2176 28.1787 26.2176 30.5878Z" fill="#312F2F"/>
</svg>
