<svg width="33" height="33" viewBox="0 0 33 35" fill="none" xmlns="http://www.w3.org/2000/svg">
<path d="M27.6207 29.0317C30.6798 25.828 32.3676 21.5653 32.3731 17.0288C32.3785 12.4922 30.701 8.22489 27.6496 5.01278C24.5981 1.80081 20.538 0.0285148 16.2171 0.0225351C11.8962 0.0165553 7.83184 1.77761 4.77259 4.98112C1.71347 8.18478 0.0256415 12.4475 0.0201716 16.984C0.0147016 21.5206 1.69225 25.7879 4.74362 29C7.79514 32.212 11.8553 33.9843 16.1761 33.9903C20.497 33.9962 24.5614 32.2352 27.6207 29.0317ZM2.02138 16.9868C2.03128 8.78039 8.39831 2.11281 16.2146 2.12363C24.0308 2.13445 30.3818 8.81962 30.3719 17.026C30.362 25.2324 23.9949 31.9 16.1787 31.8892C8.36242 31.8783 2.01149 25.1932 2.02138 16.9868Z" fill="#77CFDB"/>
<path d="M14.3379 8.03265L12.9187 9.51392L20.0182 17.0114L12.9007 24.4893L14.3163 25.9745L22.8437 17.0153L14.3379 8.03265Z" fill="#77CFDB"/>
</svg>
