<svg width="33" height="33" viewBox="0 0 33 34" fill="none" xmlns="http://www.w3.org/2000/svg">
<path d="M4.73794 4.9747C1.68269 8.18242 0 12.4473 0 16.9839C0 21.5204 1.68269 25.7856 4.73794 28.9936C7.79332 32.2015 11.8556 33.9684 16.1765 33.9687C20.4974 33.9689 24.5596 32.2024 27.615 28.9949C30.6703 25.7871 32.3529 21.5222 32.3529 16.9857C32.3529 12.4491 30.6703 8.18401 27.615 4.97595C24.5596 1.76804 20.4974 0.00114236 16.1765 0.000905572C11.8556 0.00066878 7.79332 1.76712 4.73794 4.9747ZM30.3517 16.9856C30.3517 25.192 23.9927 31.868 16.1765 31.8676C8.3602 31.8671 2.00121 25.1904 2.00121 16.984C2.00121 8.77761 8.3602 2.10158 16.1765 2.102C23.9927 2.10243 30.3517 8.77916 30.3517 16.9856Z" fill="#77CFDB"/>
<path d="M18.0459 25.956L19.4633 24.4729L12.3548 16.9848L19.4633 9.49753L18.0459 8.01422L9.5293 16.9847L18.0459 25.956Z" fill="#77CFDB"/>
</svg>
