<svg width="50" height="50" viewBox="0 0 51 48" fill="none">
<path d="M43.0323 40.7901C47.788 36.3629 50.412 30.4724 50.4206 24.2035C50.4293 17.9346 47.8217 12.0378 43.0783 7.59922C38.3347 3.16083 32.0231 0.711912 25.306 0.703814C18.589 0.695716 12.2707 3.1294 7.51479 7.55634C2.75913 11.9835 0.135157 17.874 0.12648 24.1429C0.117803 30.4118 2.72546 36.3086 7.46885 40.7472C12.2125 45.1856 18.5241 47.6345 25.2411 47.6426C31.9581 47.6507 38.2764 45.217 43.0323 40.7901ZM3.23746 24.1466C3.25315 12.8065 13.1513 3.59259 25.302 3.60724C37.4528 3.62189 47.3254 12.8597 47.3097 24.1998C47.294 35.5399 37.3959 44.7538 25.2451 44.7392C13.0943 44.7245 3.22176 35.4868 3.23746 24.1466Z" fill="#77CFDB"/>
<path d="M22.3846 11.7731L20.1783 13.8201L31.2145 24.1803L20.1497 34.514L22.3503 36.5663L35.6069 24.1856L22.3846 11.7731Z" fill="#77CFDB"/>
</svg>
