<svg width="50" height="50" viewBox="0 0 52 48" fill="none">
<path d="M8.04679 7.48867C3.3211 11.9437 0.736941 17.8495 0.770573 24.1183C0.804205 30.3871 3.4516 36.2685 8.22485 40.6791C12.9983 45.0895 19.3263 47.5013 26.0432 47.4699C32.7602 47.4385 39.0619 44.9677 43.7878 40.5129C48.5135 36.0579 51.0977 30.1521 51.0641 23.8833C51.0304 17.6145 48.383 11.7331 43.6098 7.32249C38.8363 2.91207 32.5083 0.500309 25.7914 0.531697C19.0745 0.563085 12.7727 3.03387 8.04679 7.48867ZM47.9531 23.8978C48.014 35.2378 38.1782 44.5097 26.0276 44.5665C13.8771 44.6233 3.94235 35.4437 3.88151 24.1038C3.82067 12.7638 13.6564 3.49187 25.807 3.43509C37.9576 3.37831 47.8923 12.5578 47.9531 23.8978Z" fill="#77CFDB"/>
<path d="M28.8902 36.3837L31.0826 34.3238L19.9767 24.0286L30.9715 13.6301L28.7572 11.5908L15.5844 24.0491L28.8902 36.3837Z" fill="#77CFDB"/>
</svg>
