<svg width="95" height="95" viewBox="0 0 95 95" fill="none">
<circle cx="47.5" cy="47.5" r="45" fill="white" stroke="#C5E7E8" stroke-width="5"/>
<path d="M55.7535 39.9564L69.3558 21.2544C70.6343 19.4825 70.2271 17.0156 68.4475 15.7426C66.6665 14.4684 64.1875 14.8751 62.9103 16.647L49.4416 35.4359C47.974 34.525 46.3054 34.0195 44.5629 34.0195C42.2094 34.0195 39.9631 34.9001 38.2417 36.4982L21.2732 52.2502C20.119 53.3231 19.7038 54.9778 20.2168 56.464C20.7311 57.9528 22.0797 59.0046 23.6544 59.1402L27.8734 59.5338L30.5084 66.1592C30.9738 67.3295 31.9786 68.2207 33.199 68.5459L39.8653 70.3283L41.3897 72.8887C42.1063 74.0945 43.4271 74.8422 44.8352 74.8422L45.0547 74.8369C46.5514 74.7553 47.8656 73.8602 48.4843 72.5016L58.3343 50.8654C60.0703 47.061 58.9624 42.5826 55.7535 39.9564ZM28.3877 55.607C28.3203 55.5965 23.9783 55.1397 23.9783 55.1397L33.7688 46.0513L36.2558 47.8311L28.3877 55.607ZM39.2465 66.0632L34.1985 64.7086L31.5622 58.0818C31.5582 58.07 31.5516 58.0595 31.5463 58.0503L39.5228 50.1664L44.7837 53.9286L39.2465 66.0632ZM45.0507 70.789C45.0507 70.789 43.1072 68.0575 42.9459 67.8732L48.1181 56.3495L50.7941 58.4662L45.0507 70.789ZM54.7236 49.2423L52.3358 54.471L36.7252 43.3053L40.9428 39.389C41.9278 38.4755 43.2129 37.9713 44.5589 37.9713C45.6735 37.9713 46.7418 38.3149 47.6487 38.9638L52.9849 42.7774C55.0343 44.2386 55.7628 46.957 54.7236 49.2423Z" fill="#77CFDB"/>
<path d="M59.0214 75C61.6377 75 63.7587 72.8883 63.7587 70.2834C63.7587 67.6785 61.6377 65.5668 59.0214 65.5668C56.4051 65.5668 54.2842 67.6785 54.2842 70.2834C54.2842 72.8883 56.4051 75 59.0214 75Z" fill="#77CFDB"/>
<path d="M67.6945 70.4559C69.0505 70.4559 70.1497 69.3614 70.1497 68.0113C70.1497 66.6612 69.0505 65.5668 67.6945 65.5668C66.3385 65.5668 65.2393 66.6612 65.2393 68.0113C65.2393 69.3614 66.3385 70.4559 67.6945 70.4559Z" fill="#77CFDB"/>
<path d="M73.457 73.5269C74.3092 73.5269 75 72.8391 75 71.9907C75 71.1423 74.3092 70.4545 73.457 70.4545C72.6049 70.4545 71.9141 71.1423 71.9141 71.9907C71.9141 72.8391 72.6049 73.5269 73.457 73.5269Z" fill="#77CFDB"/>
</svg>
