<svg width="95" height="95" viewBox="0 0 95 95" fill="#77CFDB">
<circle cx="47.5" cy="47.5" r="45" fill="white" stroke="#C5E7E8" stroke-width="5"/>
		<path d="m79.80307,47.91809c-0.02252,-5.13933 -2.95538,-8.39165 -5.31226,-11.00432c-1.13209,-1.25287 -2.19965,-2.44053 -2.75022,-3.61509c-0.20503,-0.43593 -0.32868,-0.83002 -0.37925,-1.20589c-0.09271,-0.64993 -0.68831,-1.13798 -1.39334,-1.13798c-0.70517,0 -1.30065,0.48805 -1.39334,1.13798c-0.22755,1.61307 -1.57033,3.10085 -3.12394,4.82098c-2.35411,2.60496 -5.28145,5.8519 -5.31792,10.93385l0,-13.27258c0.50566,-0.28447 0.98039,-0.60294 1.37373,-1.00229c1.03385,-1.04144 1.517,-2.38571 1.43548,-3.93087c-0.03937,-5.28811 -4.74207,-9.31295 -8.8913,-12.8654c-1.12089,-0.95788 -2.19688,-1.87673 -3.09576,-2.76157c-0.97762,-0.96314 -1.60128,-1.76184 -1.90744,-2.44053c0,0 0,-0.00257 0,-0.00526c-0.07019,-0.15661 -0.14894,-0.31065 -0.18541,-0.46726c-0.13787,-0.60025 -0.71096,-1.03349 -1.37109,-1.03349c-0.66014,0 -1.23322,0.4281 -1.37373,1.03105c-0.3624,1.55826 -2.70255,3.55758 -5.18308,5.67963c-4.15212,3.54975 -8.85758,7.57203 -8.89406,12.80275c-0.08151,1.60267 0.39887,2.94424 1.43272,3.98826c0.39334,0.39678 0.86806,0.71783 1.37373,0.99973l0,13.26732c-0.05057,-5.09504 -2.96091,-8.33158 -5.30673,-10.93385c-1.13209,-1.25544 -2.20242,-2.44309 -2.75022,-3.61766c0,0 0,0 0,-0.00257c-0.20226,-0.43324 -0.32591,-0.82477 -0.37925,-1.19806c-0.08994,-0.64993 -0.68831,-1.13798 -1.39334,-1.13798c-0.70517,0 -1.30065,0.48805 -1.39334,1.13798c-0.22479,1.61307 -1.56756,3.10085 -3.12104,4.82354c-2.35978,2.6128 -5.2954,5.86242 -5.32069,10.96786c-0.09547,3.09559 1.22203,4.70352 2.80921,5.5596l0,17.97084c0,0.7204 0.62931,1.30511 1.40467,1.30511l21.06943,0l0,-9.13554c0,-3.59943 3.15198,-6.52532 7.0231,-6.52532s7.0231,2.92601 7.0231,6.52532l0,9.13542l21.06943,0c0.77536,0 1.40467,-0.58471 1.40467,-1.30511l0,-17.97598c0.41572,-0.22451 0.82026,-0.46726 1.17146,-0.80128c1.15724,-1.09369 1.70781,-2.69379 1.64605,-4.71135l-0.00002,0zm-53.37873,15.666c0,0.7204 -0.62931,1.30511 -1.40467,1.30511s-1.40467,-0.58471 -1.40467,-1.30511l0,-2.6101c0,-0.7204 0.62931,-1.30511 1.40467,-1.30511s1.40467,0.58471 1.40467,1.30511l0,2.6101zm4.77578,-12.7636c-0.92139,0.88227 -2.66318,1.00487 -4.30659,1.02053l-3.00872,0c-0.02528,-0.21142 -0.05623,-0.43068 -0.07585,-0.63427c-0.03371,-0.32631 -0.06466,-0.64735 -0.08704,-0.95275c-0.02805,-0.37329 -0.04214,-0.7308 -0.05333,-1.0806c-0.00843,-0.28189 -0.01686,-0.56636 -0.01686,-0.8326c0,-0.33145 0.01409,-0.64466 0.02805,-0.95275c0.0112,-0.24801 0.02252,-0.49858 0.04214,-0.73349c0.02528,-0.29499 0.06176,-0.57419 0.09837,-0.85095c0.02805,-0.21399 0.05333,-0.43593 0.08994,-0.6421c0.04491,-0.2715 0.10114,-0.52721 0.15736,-0.78047c0.04214,-0.18536 0.07861,-0.37843 0.12365,-0.55853c0.06466,-0.25584 0.13761,-0.49589 0.20793,-0.73863c0.0478,-0.15918 0.08994,-0.32631 0.14051,-0.48022c0.08704,-0.2688 0.17975,-0.5299 0.27246,-0.78831c0.03937,-0.11489 0.07861,-0.23235 0.12075,-0.34454c0.13485,-0.36546 0.27246,-0.72566 0.4102,-1.0806c0.35963,-0.93439 0.72479,-1.88187 1.01133,-2.92332c0.00277,-0.0104 0.00843,-0.02092 0.0112,-0.03132c0.33145,0.38112 0.67699,0.76481 1.02819,1.15364c2.27827,2.52923 4.63804,5.14459 4.65489,9.37302c0.04201,1.31833 -0.24454,2.28147 -0.84857,2.85823l0.00002,-0.00001zm2.66884,1.01795c0.6313,-0.93072 0.96169,-2.09806 0.98328,-3.48038l0,3.48038l-0.98328,0zm9.41092,-6.52532c0,0.7204 -0.62931,1.30511 -1.40467,1.30511s-1.40467,-0.58471 -1.40467,-1.30511l0,-2.6101c0,-0.7204 0.62931,-1.30511 1.40467,-1.30511s1.40467,0.58471 1.40467,1.30511l0,2.6101zm6.68888,-11.73525l-2.475,-0.0104l-2.43286,0.00783l-0.09547,0c-0.4102,0 -0.81473,-0.0104 -1.22479,-0.01566c-0.059,-0.2923 -0.11522,-0.58471 -0.16013,-0.86661c-0.06466,-0.39936 -0.13208,-0.80128 -0.17422,-1.17983c-0.0478,-0.43068 -0.06742,-0.83529 -0.08704,-1.23721c-0.01686,-0.34711 -0.03937,-0.69947 -0.03648,-1.02836c0.00277,-0.39153 0.03094,-0.75955 0.059,-1.12758c0.02252,-0.30013 0.03648,-0.6082 0.07585,-0.89524c0.0478,-0.3602 0.11799,-0.69947 0.18818,-1.03888c0.05333,-0.26097 0.09547,-0.5299 0.16013,-0.77779c0.08704,-0.33671 0.19384,-0.65518 0.29774,-0.97354c0.07308,-0.22451 0.13761,-0.45673 0.21912,-0.67342c0.12365,-0.33145 0.26403,-0.64466 0.40454,-0.95788c0.08151,-0.18536 0.15446,-0.37586 0.24164,-0.55596c0.16855,-0.35237 0.34554,-0.69164 0.52529,-1.03105c0.07019,-0.13055 0.13485,-0.26623 0.20503,-0.39678c0.25007,-0.462 0.50566,-0.91616 0.76126,-1.36775c0.34831,-0.61603 0.68542,-1.22412 1.00567,-1.83758c0.09837,-0.1905 0.18265,-0.38626 0.27535,-0.57688c0.21912,-0.44634 0.42415,-0.89793 0.6068,-1.35992c0.04491,-0.1122 0.1068,-0.21668 0.14604,-0.33145c0.05057,0.04955 0.09837,0.10437 0.1517,0.15661c0.05333,0.31065 0.09271,0.62386 0.13208,0.93439c0.03371,0.26097 0.07585,0.52207 0.09837,0.78304c0.03648,0.39153 0.05333,0.78562 0.07308,1.17713c0.0112,0.23748 0.03094,0.47509 0.03937,0.71257c0.0112,0.44376 0.0112,0.88741 0.0112,1.33118c0,0.18536 0.00566,0.37329 0.00277,0.55853c-0.00566,0.62117 -0.01962,1.24247 -0.03094,1.85581c-0.01686,0.75955 -0.02805,1.52693 -0.02805,2.29174l0,0.53773c0.00566,0.78047 0.03648,1.55826 0.09547,2.33873c0.0112,0.15661 0.02805,0.31321 0.04491,0.47239c0.07585,0.80653 0.18265,1.6105 0.35397,2.40921c0.0112,0.04955 0.02805,0.09654 0.03937,0.14621c0.17132,0.75955 0.41296,1.5087 0.70517,2.2499c0.03648,0.0914 0.0478,0.18536 0.08704,0.27406c-0.08691,0.00012 -0.17409,0.00269 -0.26113,0.00269l-0.00002,0.00002zm4.54823,11.73525c0,0.7204 -0.62931,1.30511 -1.40467,1.30511s-1.40467,-0.58471 -1.40467,-1.30511l0,-2.6101c0,-0.7204 0.62931,-1.30511 1.40467,-1.30511s1.40467,0.58471 1.40467,1.30511l0,2.6101zm5.61843,6.52532l0,-3.4482c0.03424,1.49977 0.43403,2.60338 1.01976,3.4482l-1.01976,0zm11.23711,11.74564c0,0.7204 -0.62931,1.30511 -1.40467,1.30511c-0.77536,0 -1.40467,-0.58471 -1.40467,-1.30511l0,-2.6101c0,-0.7204 0.62931,-1.30511 1.40467,-1.30511c0.77536,0 1.40467,0.58471 1.40467,1.30511l0,2.6101zm4.77289,-12.76617c-0.92139,0.88227 -2.66594,1.00487 -4.30935,1.02053l-3.00595,0c-0.02528,-0.20616 -0.05333,-0.41758 -0.07585,-0.61603c-0.03371,-0.33671 -0.06742,-0.66815 -0.08994,-0.98407c-0.02528,-0.36277 -0.04214,-0.71 -0.05057,-1.04927c-0.00843,-0.2923 -0.01962,-0.58471 -0.01686,-0.86135c0.00277,-0.32104 0.01409,-0.62644 0.02805,-0.92925c0.0112,-0.25584 0.02252,-0.51424 0.04214,-0.75429c0.02528,-0.28972 0.059,-0.56122 0.09547,-0.83002c0.02805,-0.22182 0.05623,-0.4489 0.09271,-0.66032c0.04491,-0.26623 0.10114,-0.51424 0.15446,-0.76481c0.04214,-0.1905 0.07861,-0.38895 0.12642,-0.57162c0.06466,-0.25314 0.13485,-0.49075 0.20793,-0.7308c0.0478,-0.16187 0.09271,-0.32887 0.14327,-0.48805c0.08704,-0.2688 0.17975,-0.52721 0.27246,-0.78831c0.03937,-0.11489 0.07861,-0.23235 0.12075,-0.34454c0.13485,-0.36546 0.27246,-0.72566 0.4102,-1.0806c0.35963,-0.92656 0.72202,-1.87404 1.00857,-2.91035c0.00277,-0.01566 0.0112,-0.02606 0.01409,-0.04172c0.33145,0.38112 0.67422,0.76481 1.02542,1.15108c2.28116,2.52923 4.63804,5.14459 4.65779,9.37302c0.03937,1.32346 -0.24717,2.28391 -0.8512,2.8608l-0.00001,-0.00001z" fill="#77CFDB"/>
</svg>
