<svg width="95" height="95" viewBox="0 0 95 95" fill="none">
<circle cx="47.275" cy="47.275" r="44.775" fill="white" stroke="#C5E7E8" stroke-width="5"/>
<path d="M26.3838 35.0097C26.1423 33.9842 26.0008 32.9205 26.0008 31.8287V28.2821C22.2572 33.4154 20 39.9015 20 46.9615C20 56.4501 24.0589 64.9111 30.3701 70.4192V64.9674C26.2465 60.2905 23.698 53.9506 23.698 46.9615C23.698 42.6515 24.6777 38.5922 26.3838 35.0097Z" fill="#77CFDB"/>
<path d="M64.6836 23.5474V29.0207C68.7731 33.6915 71.3026 40.0039 71.3026 46.9613C71.3026 53.9188 68.7731 60.2313 64.6836 64.902V70.3757C70.9625 64.8656 74.9996 56.4232 74.9996 46.9613C74.9996 37.4996 70.9625 29.0573 64.6836 23.5474Z" fill="#77CFDB"/>
<path d="M50.1503 72.7896C49.2803 72.8961 48.3971 72.961 47.5006 72.961C46.6699 72.961 45.8517 72.9128 45.0448 72.8222V75.3059C45.0448 75.8454 44.953 76.357 44.8223 76.8521C45.7036 76.9447 46.5973 77 47.5006 77C48.443 77 49.3739 76.9468 50.2914 76.845C50.1435 76.2781 50.0509 75.6906 50.0708 75.0922L50.1503 72.7896Z" fill="#77CFDB"/>
<path d="M49.41 20.4333C50.091 19.3053 50.8834 18.2641 51.7791 17.3243C50.9283 17.1785 50.0651 17.0748 49.1895 17.0167C49.3204 17.507 49.41 18.0137 49.41 18.5491V20.4333V20.4333Z" fill="#77CFDB"/>
<path d="M64.6836 38.2291V55.6938C65.8171 53.0373 66.4694 50.0853 66.4694 46.9614C66.4693 43.8378 65.8171 40.8856 64.6836 38.2291Z" fill="#77CFDB"/>
<path d="M28.5303 46.9616C28.5303 50.1348 29.2025 53.1283 30.3702 55.8161V41.7494C30.0236 41.4477 29.697 41.1252 29.3884 40.786C28.8321 42.7364 28.5303 44.811 28.5303 46.9616Z" fill="#77CFDB"/>
<path d="M46.6585 41.1241V40.0078C46.1755 40.6359 45.6406 41.2258 45.0449 41.7483V67.4887C45.8497 67.6029 46.6661 67.6819 47.5008 67.6819C48.4679 67.6819 49.4083 67.5773 50.3364 67.4256L50.9809 48.8291L49.27 47.2523C47.6125 45.7263 46.6585 43.4927 46.6585 41.1241Z" fill="#77CFDB"/>
<path d="M59.5064 17C59.3439 17 59.1778 17.0298 59.0183 17.0898C53.8339 19.061 50.3564 24.4014 50.3564 30.3983V41.1242C50.3564 42.2968 50.8309 43.4091 51.653 44.1642L54.7438 47.0119L53.7649 75.245C53.7507 75.6847 53.9006 76.1117 54.1803 76.4281C54.4582 76.7447 54.8448 76.9241 55.2451 76.9241H59.5063C60.3234 76.9241 60.9862 76.1992 60.9862 75.3059V18.6181C60.9862 18.0946 60.7551 17.6033 60.3655 17.2998C60.1088 17.1025 59.8089 17 59.5064 17Z" fill="#77CFDB"/>
<path d="M45.7129 18.5491C45.7129 17.6934 45.0769 17 44.2932 17C43.512 17 42.878 17.6932 42.878 18.548V30.3518C42.878 31.467 42.0493 32.3712 41.0294 32.3712C40.0078 32.3712 39.1809 31.467 39.1809 30.3518V18.6094C39.1809 17.7208 38.5191 17.0001 37.7075 17.0001C36.8933 17.0001 36.2345 17.7209 36.2345 18.6094V30.3519C36.2345 31.4671 35.4058 32.3713 34.3849 32.3713C33.3635 32.3713 32.5367 31.4671 32.5367 30.3519V18.5493C32.5367 17.6935 31.9014 17.0001 31.1175 17.0001C30.3336 17.0001 29.6987 17.6934 29.6987 18.5493V31.829C29.6987 35.2199 31.4842 38.1269 34.0679 39.5784V75.306C34.0679 76.1994 34.7306 76.9242 35.5479 76.9242H39.8646C40.6829 76.9242 41.3475 76.1994 41.3475 75.306V39.5772C43.9282 38.1256 45.7129 35.2189 45.7129 31.8289V18.5491V18.5491Z" fill="#77CFDB"/>
</svg>
