<svg width="95" height="95" viewBox="0 0 95 95" fill="none">
<circle cx="47.275" cy="47.275" r="44.775" fill="white" stroke="#C5E7E8" stroke-width="5"/>
<path d="M46.9991 19C34.8694 19 25 28.7444 25 40.7217C25 43.8458 25.6476 46.8286 26.924 49.5881C32.4244 61.4718 42.9701 74.0184 46.072 77.5803C46.3044 77.8466 46.6432 78 46.9997 78C47.3562 78 47.695 77.8466 47.9274 77.5803C51.028 74.019 61.5738 61.473 67.076 49.5881C68.353 46.8286 69 43.8458 69 40.7217C68.9988 28.7444 59.1294 19 46.9991 19ZM46.9991 52.0039C40.6982 52.0039 35.5714 46.9422 35.5714 40.721C35.5714 34.4993 40.6982 29.4376 46.9991 29.4376C53.3 29.4376 58.4267 34.4993 58.4267 40.721C58.4273 46.9422 53.3006 52.0039 46.9991 52.0039Z" fill="#77CFDB"/>
</svg>
