<svg width="95" height="95" viewBox="0 0 95 95" fill="none">
<circle cx="47.5" cy="47.5" r="45" fill="white" stroke="#C5E7E8" stroke-width="5"/>
<path d="M71.3458 32.6916H59.5917V26.6295C59.5917 23.5255 57.0644 21 53.9582 21H42.0415C38.9356 21 36.4084 23.5255 36.4084 26.6295V32.6917H24.6538C23.188 32.6916 22 33.8793 22 35.3433V63.6C22 65.0641 23.188 66.2517 24.6538 66.2517H30.1213L30.3769 64.642C30.5954 63.2692 31.2319 62.0245 32.2139 61.0434L41.9771 51.2867C41.4526 47.6472 42.6544 43.8863 45.3001 41.2424C47.531 39.0131 50.4985 37.7851 53.6537 37.7851C56.8089 37.7851 59.7743 39.0131 62.0038 41.2418C64.2348 43.4711 65.4638 46.4346 65.4638 49.5877C65.4638 52.7397 64.2347 55.7042 62.0056 57.9328C59.7778 60.1571 56.8174 61.3825 53.6653 61.3825C53.0884 61.3825 52.5159 61.3412 51.9474 61.2581L50.3391 62.8669C49.7774 63.4261 49.0984 63.8244 48.3571 64.0374C48.1418 64.7741 47.7461 65.4584 47.1888 66.0141L46.9503 66.2519H71.3456C72.8116 66.2519 74 65.0643 74 63.6002V35.3433C74.0001 33.8793 72.8118 32.6916 71.3458 32.6916ZM54.3919 32.6916H41.6083V26.6295C41.6083 26.391 41.803 26.1965 42.0415 26.1965H53.9582C54.1971 26.1965 54.3919 26.391 54.3919 26.6295V32.6916Z" fill="#77CFDB"/>
<path d="M44.7637 60.2213C44.7808 60.2213 44.7977 60.2231 44.8146 60.2271L46.7851 60.7193C46.8794 60.743 46.9743 60.754 47.0676 60.754C47.3741 60.754 47.67 60.6339 47.892 60.4132L50.8676 57.4396C51.7714 57.7584 52.7193 57.9181 53.6656 57.9181C55.7967 57.9181 57.9264 57.1088 59.5529 55.4833C62.8116 52.227 62.8116 46.9471 59.5529 43.6918C57.9246 42.0635 55.7882 41.2493 53.654 41.2493C51.5176 41.2493 49.3815 42.0635 47.7533 43.6918C45.4038 46.0386 44.757 49.4354 45.7963 52.37L34.6647 63.4927C34.2046 63.9519 33.9033 64.5456 33.8017 65.1876L33.2396 68.7278C33.1836 69.0757 33.2974 69.429 33.548 69.6777C33.7562 69.8859 34.0355 70 34.3264 70C34.3841 70 34.4414 69.9957 34.4991 69.9866L38.042 69.4256C38.6834 69.3235 39.2778 69.0215 39.7379 68.5613L40.8837 67.4153C41.1752 67.1261 41.2902 66.7057 41.1922 66.3098L40.6994 64.341C40.6811 64.2666 40.7031 64.1887 40.7553 64.1346C40.7961 64.0939 40.852 64.0711 40.9094 64.0711C40.9263 64.0711 40.9452 64.0738 40.9617 64.078L42.9321 64.5703C43.027 64.5938 43.1219 64.6049 43.2149 64.6049C43.5197 64.6049 43.8174 64.4849 44.0395 64.2642L44.7381 63.5646C45.0277 63.2754 45.1428 62.8558 45.0448 62.46L44.5537 60.4904C44.5336 60.4168 44.5573 60.3381 44.6097 60.2848C44.6505 60.2432 44.7064 60.2213 44.7637 60.2213ZM53.5319 45.6166C54.0972 45.0517 54.8388 44.7691 55.5801 44.7691C56.3218 44.7691 57.0612 45.0516 57.6266 45.6166C58.7578 46.7467 58.7578 48.5777 57.6266 49.7078C57.0612 50.2727 56.3218 50.5552 55.5801 50.5552C54.8389 50.5552 54.0972 50.2728 53.5319 49.7078C52.4011 48.5776 52.4011 46.7467 53.5319 45.6166Z" fill="#77CFDB"/>
</svg>
