<svg width="15" height="21" viewBox="0 0 15 21" fill="none">
<path d="M14.6456 5.2267C14.5681 4.94654 14.4107 4.64803 14.2943 4.38667C12.901 1.15733 9.85677 0 7.39868 0C4.10807 0 0.483863 2.12806 0 6.51449V7.41066C0 7.44806 0.0133647 7.78402 0.0323486 7.95208C0.303591 10.0425 2.01392 12.2642 3.29126 14.3547C4.66549 16.5944 6.09147 18.7977 7.50423 21C8.37536 19.5628 9.24336 18.1067 10.0946 16.7067C10.3267 16.2959 10.596 15.8853 10.8282 15.4931C10.983 15.232 11.2788 14.9709 11.4139 14.7279C12.7881 12.3014 15 9.85613 15 7.44801V6.45873C15.0001 6.19767 14.6645 5.28299 14.6456 5.2267ZM7.45892 9.72547C6.49165 9.72547 5.4329 9.25901 4.91031 7.97078C4.83245 7.76571 4.83873 7.35476 4.83873 7.31711V6.73845C4.83873 5.09619 6.28455 4.34937 7.54235 4.34937C9.09083 4.34937 10.2884 5.5442 10.2884 7.03764C10.2884 8.53103 9.0074 9.72547 7.45892 9.72547Z" fill="#E4D4BB"/>
</svg>
