<svg width="95" height="95" viewBox="0 0 95 95" fill="none">
<circle cx="47.5" cy="47.5" r="45" fill="white" stroke="#C5E7E8" stroke-width="5"/>
<path d="M58.1824 46.8396C55.6905 42.3906 51.3904 39.6996 46.7733 39.6996C42.1569 39.6996 37.8567 42.3905 35.365 46.8396L28.505 59.0857C26.6263 62.4401 26.8887 66.8069 29.1495 69.8352C31.4134 72.8636 35.1422 73.839 38.331 72.2352L38.3332 72.233C43.7119 69.5276 49.8357 69.5276 55.216 72.2352C58.4029 73.839 62.1318 72.8647 64.3958 69.8364C66.6586 66.8081 66.9209 62.4401 65.0422 59.0857L58.1824 46.8396Z" fill="#77CFDB"/>
<path d="M29.84 45.6587C32.9934 44.2721 34.394 39.7121 32.9697 35.4781C31.5445 31.245 27.8338 28.9356 24.6838 30.3245C21.5328 31.711 20.1343 36.27 21.556 40.505C22.9818 44.7368 26.6928 47.0473 29.84 45.6587Z" fill="#77CFDB"/>
<path d="M42.2253 37.9911C46.3329 37.9911 49.6641 33.5153 49.6641 27.9967C49.6641 22.4757 46.3329 18 42.2253 18C38.1189 18 34.7876 22.4756 34.7876 27.9967C34.7876 33.5153 38.1189 37.9911 42.2253 37.9911Z" fill="#77CFDB"/>
<path d="M56.0948 40.9618C59.9928 42.4441 64.3881 39.3982 65.9094 34.1611C67.4316 28.9233 65.5026 23.4733 61.607 21.9912C57.7088 20.509 53.3136 23.5547 51.7935 28.7927C50.2721 34.0307 52.1992 39.4796 56.0948 40.9618Z" fill="#77CFDB"/>
<path d="M73.7618 39.459C71.0451 37.1621 66.9332 38.2535 64.5734 41.9011C62.2165 45.5498 62.5056 50.3702 65.217 52.6671C67.9276 54.9653 72.0444 53.8729 74.4055 50.226C76.7623 46.5774 76.4723 41.7561 73.7618 39.459Z" fill="#77CFDB"/>
</svg>
