<svg width="95" height="95" viewBox="0 0 95 95" fill="none">
<circle cx="47.5" cy="47.5" r="45" fill="white" stroke="#C5E7E8" stroke-width="5"/>
<path d="M76.8301 46.3566C76.184 46.3566 75.6601 46.8804 75.6601 47.5265C75.6514 63.1048 63.0156 75.7263 47.4374 75.7176C31.8591 75.7089 19.2375 63.0731 19.2462 47.4948C19.255 31.9166 31.8908 19.295 47.469 19.3038C54.9799 19.308 62.1789 22.3076 67.4707 27.6377L64.8617 27.5324C64.2156 27.5324 63.6918 28.0563 63.6918 28.7024C63.6918 29.3485 64.2156 29.8723 64.8617 29.8723L70.2317 30.0946C70.3798 30.095 70.5268 30.0671 70.6646 30.0127L70.7932 29.9308C70.9952 29.8052 71.1638 29.6326 71.2846 29.4277C71.2896 29.3654 71.2896 29.3028 71.2846 29.2405C71.3114 29.1686 71.331 29.0942 71.3431 29.0183L71.8111 23.6483C71.8661 23.0022 71.3867 22.4339 70.7406 22.3789C70.0945 22.3239 69.5262 22.8033 69.4712 23.4494L69.2372 26.1051C57.4211 14.0999 38.1102 13.9467 26.1051 25.7628C14.1 37.5789 13.9466 56.8899 25.7627 68.8949C37.5789 80.9 56.8898 81.0534 68.8949 69.2373C74.7132 63.5106 77.9928 55.6902 78 47.5265C78 46.8804 77.4762 46.3566 76.8301 46.3566Z" fill="#77CFDB"/>
<path d="M46.3069 54.4876C45.7635 54.1196 45.1133 53.9427 44.4584 53.9845H36.269C36.4977 53.6274 36.7518 53.2872 37.0294 52.9667C38.0132 51.8842 39.0897 50.8899 40.2467 49.9951C41.8067 48.7159 42.9219 47.7799 43.5927 47.1872C44.3608 46.4595 45.0188 45.6241 45.5465 44.707C46.1866 43.6491 46.5188 42.4337 46.5058 41.1972C46.5045 39.5627 45.8814 37.99 44.7626 36.7983C44.2179 36.2219 43.5662 35.757 42.8439 35.4295C41.5703 34.8964 40.1999 34.6335 38.8194 34.6573C37.6424 34.6335 36.4715 34.8319 35.3681 35.2423C34.4614 35.5827 33.6334 36.1042 32.9347 36.7749C32.3177 37.377 31.8283 38.0972 31.4957 38.8924C31.1888 39.6022 31.0258 40.3657 31.016 41.1387C30.9879 41.6574 31.1741 42.165 31.5307 42.5426C31.8737 42.8866 32.3438 43.0729 32.8294 43.0574C33.3411 43.0912 33.8389 42.8834 34.1748 42.4958C34.5408 42.0128 34.8218 41.4707 35.0054 40.893C35.1428 40.4531 35.319 40.0264 35.5319 39.6178C36.1991 38.4862 37.4243 37.8021 38.7375 37.8278C39.3391 37.8391 39.9292 37.9956 40.4573 38.2841C40.9874 38.5502 41.4361 38.9543 41.7559 39.454C42.0768 39.9912 42.2427 40.6067 42.2356 41.2323C42.2258 41.8812 42.074 42.5201 41.791 43.1042C41.4797 43.8104 41.057 44.4622 40.5392 45.0346C39.893 45.7098 39.1794 46.3174 38.4099 46.848C37.5886 47.469 36.8071 48.1412 36.0701 48.8602C34.9313 49.8898 33.664 51.1221 32.2678 52.5572C31.882 52.9909 31.5698 53.4849 31.3436 54.0196C31.1049 54.4816 30.9616 54.9868 30.9224 55.5054C30.9198 56.0814 31.1571 56.6325 31.5775 57.0263C32.0737 57.4791 32.7323 57.7113 33.4026 57.6698H44.8679C45.4298 57.7154 45.9853 57.5246 46.4005 57.1433C46.7356 56.7954 46.9168 56.3274 46.9036 55.8447C46.9345 55.3226 46.7125 54.8176 46.3069 54.4876Z" fill="#77CFDB"/>
<path d="M65.8092 49.5973C65.1871 49.3579 64.521 49.2542 63.8554 49.2931H63.1886V37.2312C63.1886 35.4218 62.4087 34.517 60.8487 34.517C60.3829 34.5094 59.9331 34.6859 59.5969 35.0083C59.1098 35.4972 58.6636 36.0256 58.2632 36.5877L50.0035 47.6435L49.4302 48.404C49.2742 48.6146 49.1221 48.8291 48.9739 49.0475C48.84 49.2484 48.73 49.4644 48.6464 49.6909C48.5769 49.8822 48.5414 50.0842 48.5411 50.2876C48.5064 50.9748 48.7761 51.6422 49.2781 52.1127C49.9103 52.6037 50.7028 52.8415 51.501 52.7795H59.3278V55.716C59.2879 56.3379 59.4749 56.9531 59.8543 57.4475C60.6258 58.2293 61.8851 58.2377 62.6669 57.4661C62.6732 57.46 62.6793 57.4538 62.6855 57.4475C63.0638 56.9526 63.2509 56.3377 63.212 55.716V52.7912H64.1596C64.78 52.8348 65.3991 52.6922 65.9379 52.3817C66.3586 52.0686 66.585 51.5584 66.5346 51.0363C66.6195 50.4518 66.3297 49.8766 65.8092 49.5973ZM59.3161 49.258H52.6124L59.3161 40.2028V49.258Z" fill="#77CFDB"/>
</svg>
