<svg width="95" height="95" viewBox="0 0 95 95" fill="none">
<circle cx="47.5" cy="47.5" r="45" fill="white" stroke="#C5E7E8" stroke-width="5"/>
<path d="M77.7005 42.016C77.3875 41.557 76.8714 41.2751 76.3148 41.2597L74.9854 41.2236C73.968 43.4853 72.0531 45.1839 69.6686 45.9164L66.6435 54.2091C66.6329 54.2381 66.615 54.2619 66.604 54.2906L70.4525 57.3361C70.8784 57.6753 71.4531 57.8001 72.0005 57.6451C72.5352 57.4952 72.9666 57.0948 73.1561 56.5733L77.8951 43.5792C78.0862 43.0577 78.0135 42.4753 77.7005 42.016Z" fill="#77CFDB"/>
<path d="M56.077 47.2879C54.6906 47.5787 53.083 47.4456 51.6073 46.9099L26.5349 37.8068L26.5331 37.8064C25.9765 37.6035 25.4539 37.3485 24.9671 37.0505L24.3148 38.8384C23.3331 41.5295 24.7239 44.5053 27.4212 45.4848L56.7257 56.1262C59.423 57.1059 62.4057 55.7181 63.3873 53.027L65.7915 46.4368L56.077 47.2879Z" fill="#77CFDB"/>
<path d="M69.4622 31.3212L33.6463 18.3149C30.9348 17.3315 27.9642 18.73 26.9837 21.4141L24.6143 27.9104C23.6264 30.6146 25.0313 33.5799 27.7206 34.5579L52.7827 43.6577C53.6276 43.9657 54.6867 44.0944 55.5285 43.8653L68.3632 42.7413C70.0568 42.3295 71.4239 41.1091 72.0178 39.4768L72.5687 37.9668C73.5545 35.2682 72.158 32.3012 69.4622 31.3212ZM42.0791 30.5739C41.7518 31.4709 40.7577 31.9333 39.8584 31.607L33.3465 29.2422C32.4473 28.9155 31.9838 27.9237 32.3109 27.0267C32.6382 26.1295 33.6324 25.6673 34.5315 25.9937L41.0436 28.3584C41.9427 28.6848 42.4064 29.6767 42.0791 30.5739Z" fill="#77CFDB"/>
<path d="M43.0575 54.8418V59.4842C43.0575 61.39 41.5027 62.9413 39.5925 62.9413H30.93V61.2128C30.93 58.3488 28.603 56.0272 25.7325 56.0272C24.7757 56.0272 24 56.8009 24 57.7557V75.2713C24 76.2259 24.7757 76.9998 25.7325 76.9998C28.603 76.9998 30.93 74.6782 30.93 71.8143V69.8553H39.5925C45.3247 69.8553 49.9876 65.2032 49.9876 59.4842V57.3589L43.0575 54.8418Z" fill="#77CFDB"/>
</svg>
