<svg width="95" height="95" viewBox="0 0 95 95" fill="none">
<circle cx="47.5" cy="47.5" r="45" fill="white" stroke="#C5E7E8" stroke-width="5"/>
<path d="M43.0852 66.3746C40.9241 68.5762 40.9241 72.1474 43.0852 74.3491C45.2474 76.5503 48.7529 76.5503 50.915 74.3491C53.076 72.1474 53.076 68.5762 50.915 66.3746C48.7529 64.173 45.2474 64.173 43.0852 66.3746Z" fill="#77CFDB"/>
<path d="M46.9997 51.1915C41.9597 51.1915 37.2183 53.2834 33.6564 57.0826C32.2571 58.573 32.2571 60.9886 33.6564 62.478C35.0546 63.9684 37.3205 63.9684 38.7198 62.478C40.9291 60.1205 43.8706 58.8226 46.9997 58.8226C50.1288 58.8226 53.0705 60.1205 55.2798 62.478C55.98 63.2232 56.8984 63.5957 57.812 63.5957C58.7305 63.5957 59.6441 63.2232 60.3432 62.478C61.7425 60.9886 61.7425 58.5731 60.3432 57.0826C56.7812 53.2834 52.0397 51.1915 46.9997 51.1915Z" fill="#77CFDB"/>
<path d="M47.001 37.6595C39.0214 37.6595 31.5198 40.7578 25.8785 46.3826C24.5164 47.741 24.5164 49.9429 25.8785 51.3002C27.2415 52.6586 29.4502 52.6586 30.811 51.3002C35.1347 46.9885 40.8853 44.6144 47.0009 44.6144C53.1141 44.6144 58.8647 46.9885 63.1884 51.3002C63.8693 51.9795 64.7642 52.3191 65.6542 52.3191C66.5489 52.3191 67.4402 51.9795 68.1211 51.3002C69.4832 49.9429 69.4832 47.741 68.1211 46.3826C62.4798 40.7578 54.9806 37.6595 47.001 37.6595Z" fill="#77CFDB"/>
<path d="M76.9564 35.8555C68.9562 27.5649 58.3186 23 47.0011 23C35.6835 23 25.046 27.5649 17.0458 35.8555C15.6514 37.3006 15.6514 39.6429 17.0458 41.0867C17.744 41.8092 18.6576 42.1702 19.5711 42.1702C20.4846 42.1702 21.4007 41.8092 22.0953 41.0867C28.7468 34.1937 37.5931 30.3983 47.0011 30.3983C56.4092 30.3983 65.2529 34.1937 71.9046 41.0867C73.2987 42.5317 75.5584 42.5304 76.9542 41.088C78.3482 39.6429 78.3482 37.3006 76.9564 35.8555Z" fill="#77CFDB"/>
</svg>
