<svg viewBox="0 0 222 71">
<path d="M20.0765 37.9293C16.4376 36.4304 13.8852 34.932 12.4192 33.4341C10.9532 31.9362 10.2206 30.2063 10.2215 28.2443C10.2225 25.9728 11.1196 24.0112 12.9129 22.3599C14.7063 20.6569 16.961 19.806 19.677 19.8072C22.882 19.8086 25.3804 20.6616 27.1722 22.3662C28.9641 24.0191 29.8595 26.2137 29.8583 28.9502C29.8567 32.6673 28.1982 36.3582 24.883 40.0223L20.0765 37.9293ZM8.98685 56.5108C8.9886 52.5354 10.8916 48.6383 14.6957 44.8195L22.7609 48.153C25.748 49.4449 27.8659 50.7626 29.1147 52.1053C30.4178 53.4482 31.069 55.3074 31.068 57.6821C31.0669 60.2121 30.0065 62.1991 27.8874 63.644C25.7683 65.0885 23.0248 65.8102 19.6569 65.8087C16.3433 65.8073 13.7363 64.9543 11.8358 63.2497C9.93531 61.4934 8.98566 59.2472 8.98685 56.5108ZM39.38 55.7498C39.3825 49.9158 35.8265 45.2416 28.7119 41.7277C34.9061 38.2197 38.0042 33.9874 38.0063 29.0312C38.0083 24.5393 36.2986 21.2085 32.8775 19.0386C29.5104 16.8687 25.1109 15.7825 19.6788 15.7802C14.0837 15.7777 9.79175 17.1956 6.80284 20.0339C3.81397 22.8722 2.31862 26.3049 2.31686 30.332C2.31554 33.3263 3.02062 35.8307 4.43208 37.845C5.89787 39.8591 8.09709 41.6412 11.0297 43.1913C4.34662 46.9574 1.00388 51.4734 1.00158 56.7397C0.99963 61.1797 2.70931 64.4589 6.13061 66.5772C9.5519 68.6955 14.0329 69.756 19.5737 69.7584C25.7119 69.7611 30.547 68.4983 34.0792 65.9699C37.6111 63.4418 39.3781 60.0349 39.38 55.7498Z" />
<path d="M118.578 60.586C118.686 60.2761 118.741 60.0697 118.741 59.9663C118.741 59.5017 118.47 59.0628 117.926 58.6495C117.383 58.1846 116.84 57.952 116.297 57.9518C116.134 57.9517 115.971 58.055 115.808 58.2613C112.764 62.5452 108.01 64.6858 101.546 64.683C96.6572 64.6808 92.7198 62.5882 89.7341 58.4048C86.7481 54.2217 85.2566 49.0581 85.2593 42.9141C85.2606 40.0747 85.5332 37.3641 86.0776 34.7829C86.6764 32.2017 87.5465 29.7755 88.6884 27.5044C89.8844 25.1816 91.542 23.3495 93.661 22.008C95.8344 20.6666 98.3336 19.9966 101.158 19.9978C104.037 19.9991 106.346 20.7229 108.083 22.1692C109.875 23.564 110.771 25.3714 110.77 27.5915C110.769 28.7274 110.579 29.7856 110.198 30.7665C109.817 31.7472 109.41 32.5214 108.975 33.0892C108.594 33.6052 108.404 33.9408 108.404 34.0957C108.404 34.6637 108.974 34.9478 110.115 34.9483C112.396 34.9493 114.298 34.1757 115.819 32.6275C117.341 31.0794 118.102 29.0663 118.104 26.5879C118.105 23.4386 116.531 20.908 113.381 18.9964C110.231 17.0331 106.158 16.0503 101.16 16.0482C93.2291 16.0447 87.1713 18.5719 82.9863 23.6297C78.8557 28.636 76.7885 35.0629 76.7851 42.9104C76.7829 47.9702 77.623 52.4622 79.3051 56.3867C81.0419 60.3114 83.7565 63.5135 87.4493 65.9933C91.1421 68.4215 95.6228 69.6369 100.892 69.6392C108.225 69.6424 114.121 66.6245 118.578 60.586Z" />
<path d="M193.542 55.5076L193.557 23.4459C193.558 21.1742 195.242 20.0391 198.61 20.0406C202.467 20.0423 205.454 20.9987 207.572 22.9099C209.744 24.8211 210.829 27.2998 210.828 30.346C210.826 33.4952 209.875 36.0247 207.973 37.9342C206.071 39.8435 203.408 40.7976 199.986 40.7961C199.117 40.7957 198.275 40.7438 197.46 40.6401C196.7 40.4849 196.265 40.4072 196.157 40.4072C195.45 40.4069 195.097 40.8198 195.097 41.6458C195.097 42.3686 195.477 42.9109 196.237 43.2725C197.758 43.8927 199.441 44.2032 201.288 44.204C204.873 44.2056 207.752 45.188 209.924 47.1508C212.096 49.0619 213.181 51.4115 213.18 54.1997C213.179 57.4007 212.173 60.0073 210.162 62.0202C208.151 63.9812 205.381 64.9608 201.849 64.9593C200.872 64.9589 200.003 64.881 199.242 64.7258C198.482 64.5706 197.613 64.2346 196.635 63.7179C195.658 63.1495 194.898 62.1684 194.355 60.7742C193.813 59.3797 193.542 57.6244 193.542 55.5076ZM201.441 68.6765C214.478 68.6823 220.998 63.9609 221.002 54.5129C221.003 51.9314 220.054 49.5819 218.154 47.4642C216.253 45.295 213.647 43.6674 210.334 42.5817C215.604 40.2093 218.24 36.0799 218.243 30.1944C218.244 26.0123 216.562 22.6299 213.195 20.047C209.883 17.4124 204.75 16.0936 197.797 16.0906C194.592 16.0891 191.224 16.4233 187.693 17.0929C184.162 17.7109 181.282 18.4324 179.055 19.2576L179.95 21.9685L184.35 21.9704C185.436 21.9709 185.979 22.5132 185.979 23.5974L185.963 59.144C185.962 61.3641 185.636 62.8869 184.984 63.7128C184.386 64.5385 183.109 65.2349 181.153 65.8021L179.36 66.1885L180.337 68.6673L201.441 68.6765Z" />
<path d="M166.288 23.8016C166.287 25.8344 164.665 27.4816 162.664 27.4807C160.664 27.4799 159.043 25.8313 159.044 23.7984C159.045 21.7656 160.667 20.1184 162.668 20.1193C161.942 22.7691 163.39 24.5365 166.288 23.8016Z"/>
<path fill-rule="evenodd" clip-rule="evenodd" d="M172.643 23.6571C172.641 28.9588 168.374 33.5008 162.807 33.4984C157.239 33.4959 152.977 28.9501 152.98 23.6485C152.982 18.3469 157.248 13.8047 162.816 13.8071C168.383 13.8095 172.645 18.3555 172.643 23.6571ZM162.808 31.0142C166.808 31.016 170.052 27.7216 170.054 23.656C170.056 19.5904 166.815 16.2931 162.814 16.2914C158.814 16.2896 155.57 19.584 155.568 23.6496C155.566 27.7152 158.808 31.0125 162.808 31.0142Z" />
<path d="M139.633 23.7899C139.632 25.8227 138.01 27.4699 136.01 27.469C134.009 27.4681 132.389 25.8195 132.39 23.7867C132.39 21.7539 134.013 20.1067 136.013 20.1076C135.287 22.7574 136.735 24.5248 139.633 23.7899Z"/>
<path fill-rule="evenodd" clip-rule="evenodd" d="M145.987 23.6454C145.985 28.947 141.719 33.4891 136.152 33.4867C130.584 33.4842 126.322 28.9384 126.324 23.6368C126.327 18.3352 130.592 13.7929 136.16 13.7954C141.728 13.7978 145.99 18.3438 145.987 23.6454ZM136.153 31.0025C140.153 31.0042 143.397 27.7099 143.399 23.6443C143.401 19.5787 140.159 16.2814 136.159 16.2796C132.159 16.2779 128.914 19.5723 128.913 23.6379C128.911 27.7035 132.152 31.0007 136.153 31.0025Z" />
<path d="M154.116 32.0411C154.114 34.7243 151.794 39.696 149.331 41.1671C146.579 39.5466 144.553 34.7201 144.555 32.0369C144.556 29.3535 146.697 27.1793 149.337 27.1804C151.977 27.1816 154.117 29.3577 154.116 32.0411Z"/>
<path d="M122.546 7.73444C122.734 11.6141 123.529 13.5592 125.439 16.8639C126.771 14.7395 128.115 13.8216 131.091 12.4495C127.676 11.7382 125.801 10.7586 122.546 7.73444Z" />
<path fill-rule="evenodd" clip-rule="evenodd" d="M127.907 4.79225C124.574 3.32798 120.086 0.077515 120.086 0.077515C120.016 1.15959 125.054 8.92893 127.905 9.6508C128.782 9.87303 129.626 10.1593 130.501 10.4562L130.502 10.4566C132.469 11.1238 134.592 11.8444 137.609 12.0107C142.591 13.2706 144.511 15.0268 147.167 19.0819C148.097 22.9 148.223 24.641 148.033 27.3271L149.192 27.3276L149.337 27.3276L150.496 27.3281C150.308 24.6419 150.435 22.901 151.369 19.0837C154.029 15.031 155.95 13.2765 160.933 12.0209C163.95 11.8572 166.074 11.1386 168.041 10.473L168.043 10.4725C168.918 10.1764 169.762 9.89094 170.639 9.66953C173.491 8.95016 178.535 1.18524 178.466 0.103102C178.466 0.103102 173.975 3.34963 170.642 4.81098C166.552 6.37424 164.07 6.97393 159.341 7.60338L149.273 8.47603L139.205 7.59455C134.477 6.96096 131.995 6.35909 127.907 4.79225ZM173.389 15.8212C175.303 12.7275 176.099 10.9065 176.29 7.27279C173.032 10.1025 171.157 11.0185 167.741 11.6818C170.716 12.9694 172.059 13.8303 173.389 15.8212Z" />
<path d="M165.41 42.6463C165.41 43.6222 164.631 44.4128 163.671 44.4124C162.711 44.412 161.933 43.6207 161.933 42.6448C161.934 41.6692 162.713 38.9646 163.673 38.9651C164.633 38.9655 165.411 41.6707 165.41 42.6463Z"/>
<path d="M161.64 52.3621C161.639 53.3376 160.86 54.1282 159.9 54.1278C158.94 54.1274 158.163 53.3361 158.163 52.3605C158.163 51.3847 158.943 48.6801 159.903 48.6805C160.863 48.6809 161.64 51.3862 161.64 52.3621Z"/>
<path d="M140.489 52.3528C140.488 53.3284 139.71 54.119 138.75 54.1186C137.79 54.1181 137.012 53.3268 137.012 52.3513C137.012 51.3754 137.792 48.6708 138.752 48.6712C139.712 48.6717 140.489 51.3769 140.489 52.3528Z"/>
<path d="M155.847 46.7647C155.847 47.7403 155.068 48.5309 154.108 48.5305C153.148 48.5301 152.37 47.7388 152.37 46.7632C152.371 45.7873 153.15 43.0827 154.111 43.0832C155.071 43.0836 155.848 45.7888 155.847 46.7647Z"/>
<path d="M146.286 46.7606C146.286 47.7362 145.507 48.5268 144.547 48.5263C143.587 48.5259 142.809 47.7346 142.809 46.759C142.81 45.7832 143.59 43.0786 144.55 43.079C145.51 43.0794 146.287 45.7847 146.286 46.7606Z"/>
<path d="M150.918 55.7912C150.918 56.7406 150.139 57.51 149.179 57.5096C148.219 57.5091 147.441 56.7391 147.441 55.7897C147.442 54.8403 148.221 52.2087 149.181 52.2091C150.141 52.2096 150.918 54.8418 150.918 55.7912Z"/>
<path d="M136.727 42.7812C136.727 43.7568 135.948 44.5474 134.988 44.547C134.028 44.5465 133.25 43.7553 133.25 42.7797C133.251 41.8038 134.03 39.0992 134.99 39.0996C135.95 39.1001 136.727 41.8053 136.727 42.7812Z"/>
<path fill-rule="evenodd" clip-rule="evenodd" d="M167.352 35.6083L167.353 35.6078L167.358 35.6047C167.363 35.602 167.371 35.5973 167.382 35.5912C167.404 35.5788 167.437 35.5596 167.48 35.5334C167.567 35.4811 167.694 35.4012 167.852 35.2933C168.168 35.0771 168.609 34.7485 169.102 34.3014C170.087 33.4067 171.273 32.0422 172.082 30.1609L172.308 29.6357L172.602 30.1291C173.502 31.6386 175.01 35.1716 175.006 43.065C175.003 50.9753 172.812 57.4785 168.413 62.5519C164.053 67.5905 157.769 70.094 149.607 70.0904C141.446 70.0868 135.164 67.5779 130.808 62.5351L130.806 62.5327C126.521 57.4558 124.392 50.9515 124.395 43.0428L124.395 43.0238C124.396 40.1607 124.399 34.8399 126.309 30.7537L126.558 30.2197L126.833 30.7426C127.381 31.7885 128.644 32.9991 129.803 33.9661C130.377 34.4451 130.916 34.8562 131.311 35.1474C131.509 35.293 131.67 35.4086 131.782 35.4877C131.838 35.5272 131.881 35.5575 131.911 35.5779C131.925 35.5881 131.937 35.5958 131.944 35.6008L131.952 35.6066L131.954 35.608L131.955 35.6082L132.206 35.7795L132.012 36.0046L132.012 36.0051C132.011 36.0059 132.01 36.0081 132.008 36.0112C132.002 36.0186 131.991 36.0329 131.977 36.0544C131.949 36.0977 131.904 36.171 131.849 36.2806C131.74 36.5002 131.587 36.8664 131.432 37.4335C131.123 38.5683 130.806 40.5022 130.805 43.6663C130.802 49.9459 133.624 55.1403 136.436 59.2633C139.25 63.3094 144.092 65.3478 149.284 65.3501C154.522 65.3524 160.377 62.7206 163.417 58.5636C166.474 54.3296 167.836 48.8956 168.307 43.2729C168.542 40.4769 168.268 38.6479 167.944 37.5278C167.782 36.9677 167.607 36.5843 167.477 36.3447C167.411 36.2251 167.357 36.1413 167.32 36.0892C167.302 36.0633 167.289 36.0451 167.28 36.0346C167.276 36.0291 167.273 36.0258 167.272 36.0241L167.272 36.0239L167.271 36.0233L167.271 36.023L167.051 35.7711L167.352 35.6083ZM167.899 35.9321C167.928 35.9784 167.958 36.0311 167.991 36.0909C168.141 36.3657 168.33 36.7855 168.502 37.3814C168.847 38.5735 169.124 40.468 168.885 43.317C168.41 48.9843 167.033 54.5288 163.894 58.8763L163.893 58.8777C160.735 63.1978 154.692 65.904 149.283 65.9016C143.937 65.8992 138.894 63.7968 135.952 59.5671L135.951 59.5649C133.118 55.4119 130.223 50.1068 130.225 43.666C130.227 40.4694 130.546 38.4867 130.871 37.2946C131.034 36.6983 131.199 36.2985 131.326 36.0434C131.353 35.991 131.377 35.945 131.4 35.9045C131.288 35.8251 131.137 35.7165 130.957 35.5835C130.555 35.2874 130.006 34.8691 129.421 34.381C128.427 33.5516 127.297 32.4967 126.613 31.4855C124.982 35.3828 124.976 40.2828 124.974 43.0431C124.971 50.8542 127.073 57.2276 131.257 62.1862C135.48 67.0751 141.582 69.5354 149.608 69.539C157.634 69.5425 163.738 67.0869 167.966 62.2009L167.966 62.2009C172.263 57.2457 174.424 50.8747 174.427 43.0648C174.43 36.0416 173.227 32.5571 172.375 30.9007C171.544 32.5985 170.435 33.8525 169.502 34.7004C168.987 35.1678 168.525 35.5126 168.19 35.7415C168.078 35.8178 167.98 35.8811 167.899 35.9321Z" />
<path d="M167.991 36.0909C167.958 36.0311 167.928 35.9785 167.9 35.9321C167.98 35.8812 168.078 35.8178 168.19 35.7416C168.525 35.5127 168.987 35.1679 169.502 34.7004C170.436 33.8525 171.545 32.5985 172.375 30.9007C173.227 32.5571 174.43 36.0417 174.427 43.0648C174.424 50.8748 172.263 57.2458 167.966 62.2009L167.966 62.2009C163.738 67.0869 157.634 69.5425 149.608 69.539C141.582 69.5355 135.481 67.0751 131.257 62.1862C127.073 57.2276 124.971 50.8542 124.975 43.0431C124.976 40.2828 124.982 35.3828 126.614 31.4856C127.297 32.4967 128.427 33.5517 129.421 34.3811C130.007 34.8691 130.555 35.2874 130.957 35.5836C131.137 35.7165 131.288 35.8252 131.4 35.9046C131.377 35.9451 131.353 35.9911 131.327 36.0434C131.199 36.2986 131.034 36.6984 130.871 37.2947C130.546 38.4868 130.227 40.4695 130.226 43.6661C130.223 50.1069 133.118 55.4119 135.951 59.5649L135.953 59.5671C138.894 63.7968 143.937 65.8993 149.283 65.9016C154.693 65.904 160.735 63.1979 163.893 58.8777L163.894 58.8763C167.033 54.5289 168.41 48.9843 168.885 43.317C169.124 40.4681 168.847 38.5735 168.503 37.3815C168.33 36.7856 168.141 36.3658 167.991 36.0909Z" />
</svg>
