<svg width="29" height="41" viewBox="0 0 29 41" fill="none">
<path d="M28.3149 10.2045C28.165 9.65754 27.8608 9.07473 27.6357 8.56446C24.942 2.25956 19.0564 0 14.3041 0C7.94228 0 0.935468 4.15478 0 12.7188V14.4684C0 14.5415 0.0258384 15.1974 0.0625407 15.5255C0.586943 19.6069 3.89358 23.9445 6.3631 28.0259C9.01996 32.3986 11.7768 36.7002 14.5082 41C16.1924 38.194 17.8705 35.3512 19.5163 32.6179C19.9649 31.8157 20.4856 31.0141 20.9346 30.2484C21.2339 29.7386 21.8057 29.2288 22.0669 28.7545C24.7236 24.017 29 19.2429 29 14.5414V12.6099C29.0001 12.1002 28.3514 10.3144 28.3149 10.2045ZM14.4206 18.9878C12.5505 18.9878 10.5036 18.0771 9.49327 15.562C9.34274 15.1616 9.35488 14.3593 9.35488 14.2858V13.156C9.35488 9.94971 12.1501 8.49163 14.5819 8.49163C17.5756 8.49163 19.891 10.8244 19.891 13.7402C19.891 16.6558 17.4143 18.9878 14.4206 18.9878Z" fill="#68BABD"/>
</svg>
