<svg width="29" height="23" viewBox="0 0 29 23" fill="none">
<path d="M29 19.1666C29 19.8389 28.8212 20.4621 28.5347 21.0104L19.3782 10.1769L28.4354 1.79717C28.7878 2.38843 29 3.08297 29 3.8335V19.1666ZM14.5 12.1439L27.1028 0.482996C26.5857 0.183604 26.0033 0 25.3751 0H3.62498C2.99598 0 2.41342 0.183604 1.89835 0.482996L14.5 12.1439ZM18.0136 11.4384L15.0964 14.1393C14.9258 14.2965 14.7133 14.375 14.5 14.375C14.2867 14.375 14.0742 14.2965 13.9035 14.1393L10.9857 11.4383L1.71336 22.4104C2.26914 22.7791 2.92049 23 3.62492 23H25.3751C26.0794 23 26.731 22.7791 27.2866 22.4104L18.0136 11.4384ZM0.564686 1.79711C0.212415 2.38837 0 3.08291 0 3.8335V19.1666C0 19.8389 0.177989 20.4622 0.465531 21.0105L9.62094 10.175L0.564686 1.79711Z" fill="#68BABD"/>
</svg>
