<svg width="29" height="31" viewBox="0 0 29 31" fill="none">
<path d="M28.3499 24.5195L23.8713 19.7207C22.9792 18.7688 21.502 18.7977 20.5788 19.7871L18.3225 22.2039C18.1799 22.1198 18.0324 22.0318 17.8773 21.9386C16.4524 21.0927 14.5023 19.9334 12.4501 17.7331C10.3919 15.5283 9.30881 13.4357 8.5169 11.9081C8.43334 11.7463 8.35327 11.5903 8.27421 11.4421L9.78854 9.82205L10.533 9.02342C11.4576 8.0326 11.4831 6.45033 10.5931 5.49567L6.11452 0.696285C5.22455 -0.25704 3.74662 -0.228119 2.82207 0.762697L1.55985 2.12279L1.59434 2.15948C1.1711 2.73808 0.817432 3.40541 0.55424 4.12504C0.311627 4.81004 0.160577 5.46371 0.0915088 6.11872C-0.499861 11.3713 1.74048 16.1718 7.82047 22.6859C16.2249 31.6896 22.9977 31.0094 23.2899 30.9762C23.9263 30.8947 24.5361 30.7318 25.1559 30.474C25.8218 30.1953 26.4442 29.8169 26.9839 29.3644L27.0115 29.3907L28.2902 28.0491C29.2128 27.0585 29.2394 25.4757 28.3499 24.5195Z" fill="#68BABD"/>
</svg>
