<svg width="20" height="20" viewBox="0 0 20 20" fill="none">
<path d="M18.737 15.819L15.777 12.723C15.1874 12.1089 14.2111 12.1275 13.601 12.7659L12.1097 14.3251C12.0155 14.2708 11.918 14.2141 11.8154 14.1539C10.8737 13.6082 9.58482 12.8602 8.22853 11.4407C6.86822 10.0182 6.15238 8.66818 5.62899 7.68266C5.57376 7.57825 5.52084 7.47759 5.46859 7.38199L6.46944 6.33681L6.96149 5.82156C7.57255 5.18233 7.5894 4.16151 7.0012 3.54559L4.0412 0.449216C3.453 -0.165832 2.47621 -0.147173 1.86516 0.492062L1.03094 1.36954L1.05373 1.39321C0.774006 1.7665 0.540257 2.19704 0.366308 2.66132C0.20596 3.10325 0.106128 3.52498 0.06048 3.94756C-0.330368 7.33632 1.15032 10.4334 5.1687 14.636C10.7233 20.4449 15.1996 20.0061 15.3928 19.9847C15.8133 19.9321 16.2164 19.827 16.626 19.6606C17.0661 19.4808 17.4775 19.2367 17.8342 18.9448L17.8524 18.9617L18.6976 18.0962C19.3073 17.4571 19.3249 16.4359 18.737 15.819Z" fill="#E4D4BB"/>
</svg>
