<svg width="20" height="15" viewBox="0 0 20 15" fill="none">
<path d="M16.6667 8.88538V8.22429L19.35 3.91073C19.7702 3.23438 19.9994 2.39459 20 1.52895C19.9995 0.6848 19.4674 0.000610915 18.8108 8.23754e-06H15.8875C15.4361 -0.00195046 15.028 0.345543 14.8533 0.880721C14.288 2.87995 13.5441 4.78808 12.6366 6.56678C12.3573 6.84858 11.9725 6.88253 11.6658 6.65251V1.17217C11.6631 0.526698 11.257 0.00412653 10.755 8.23754e-06H7.08332C6.8532 -0.000544217 6.66633 0.23892 6.6659 0.534784C6.6657 0.677418 6.70977 0.814275 6.78832 0.915023L7.01664 1.20858C7.32676 1.60494 7.50078 2.14423 7.49996 2.70643V6.77787C7.4609 6.82914 7.41059 6.8639 7.35578 6.87751C7.20117 6.84682 7.06078 6.74382 6.9616 6.58822C5.88922 4.58804 4.93969 2.48344 4.1216 0.293613C4.05063 0.113512 3.90695 5.8433e-05 3.74992 5.8433e-05H1.08332C0.48504 5.8433e-05 1.50893e-06 0.623628 1.50893e-06 1.3929V1.66611C-0.000701616 2.79613 0.244337 3.9039 0.707501 4.86432C2.9425 9.4875 6.0075 15 7.91668 15H10.6425C11.2077 14.9988 11.6657 14.41 11.6667 13.6832V12.7661C11.6665 12.2252 12.0073 11.7866 12.428 11.7864C12.6304 11.7863 12.8245 11.8897 12.9675 12.0739L14.6975 14.2982C15.0471 14.7491 15.5223 15.0017 16.0175 15H18.9908C19.5473 14.9989 19.9977 14.4182 19.9968 13.7027C19.9964 13.3603 19.8906 13.032 19.7025 12.7896L16.6667 8.88538Z" fill="#E4D4BB"/>
</svg>
